PathFileType	4	(X/Y/Z)	F:/Ayumi_testdata/Ayumi_25_09_2024/new_static/static_00.trc																																																																																																																																																																																																				
DataRate	CameraRate	NumFrames	NumMarkers	Units	OrigDataRate	OrigDataStartFrame	OrigNumFrames																																																																																																																																																																																																
200	200	5	66	mm	200	111	295																																																																																																																																																																																																
Frame#	Time	LASI			RASI			RSACR			LSACR			USACR			LBAR			RBAR			RHEE			RMT1			RMT5			RMT2			LHEE			LMT1			LMT5			LMT2			LMMAL			LMFC			LLFC			LLMAL			LTIB4			LTIB2			LTIB3			LTIB1			RMMAL			RMFC			RLFC			RLMAL			RTIB1			RTIB2			RTIB3			RTHI1			RTHI4			RTHI3			RTHI2			LTHI1			LTHI4			LTHI3			LTHI2			FHD			LBHD			RBHD			C7			T10			CLAV			LSHO			RSHO			LRAD			LUL			LRFIN			RRAD			RUL			RUFIN			RLEP			RMEP			LLEP			LMEP			LDUPA			LMUPA			LUUPA			RDUPA			RUUPA			RMUPA			LKJC			RKJC			LAJC			RAJC		
		X1	Y1	Z1	X2	Y2	Z2	X3	Y3	Z3	X4	Y4	Z4	X5	Y5	Z5	X6	Y6	Z6	X7	Y7	Z7	X8	Y8	Z8	X9	Y9	Z9	X10	Y10	Z10	X11	Y11	Z11	X12	Y12	Z12	X13	Y13	Z13	X14	Y14	Z14	X15	Y15	Z15	X16	Y16	Z16	X17	Y17	Z17	X18	Y18	Z18	X19	Y19	Z19	X20	Y20	Z20	X21	Y21	Z21	X22	Y22	Z22	X23	Y23	Z23	X24	Y24	Z24	X25	Y25	Z25	X26	Y26	Z26	X27	Y27	Z27	X28	Y28	Z28	X29	Y29	Z29	X30	Y30	Z30	X31	Y31	Z31	X32	Y32	Z32	X33	Y33	Z33	X34	Y34	Z34	X35	Y35	Z35	X36	Y36	Z36	X37	Y37	Z37	X38	Y38	Z38	X39	Y39	Z39	X40	Y40	Z40	X41	Y41	Z41	X42	Y42	Z42	X43	Y43	Z43	X44	Y44	Z44	X45	Y45	Z45	X46	Y46	Z46	X47	Y47	Z47	X48	Y48	Z48	X49	Y49	Z49	X50	Y50	Z50	X51	Y51	Z51	X52	Y52	Z52	X53	Y53	Z53	X54	Y54	Z54	X55	Y55	Z55	X56	Y56	Z56	X57	Y57	Z57	X58	Y58	Z58	X59	Y59	Z59	X60	Y60	Z60	X61	Y61	Z61	X62	Y62	Z62	X63	Y63	Z63	X64	Y64	Z64	X65	Y65	Z65	X66	Y66	Z66
																																																																																																																																																																																																							
111	0.55	132.8162994	762.2756958	918.0321045	128.5401764	984.7034302	918.6376343	308.3118591	912.5250244	950.244751	307.4872437	852.6089478	953.4697876	296.6271057	882.4710083	966.5998535	1270.853394	-346.4663696	26.3148632	1226.414673	1876.946045	26.28985405	323.0627747	1019.710205	39.870327	128.1490021	1043.338989	43.4648056	165.0034332	1113.781616	34.9839325	140.1751709	1079.971558	42.69412994	326.2662659	745.1768799	45.85077667	134.3843384	736.4874268	46.34345245	169.9622498	662.8091431	33.4453392	143.1734772	698.0697021	45.93328094	276.6662598	778.7010498	72.95455933	232.4232178	829.1686401	456.8843689	218.8312683	721.5517578	453.9569092	278.776001	701.0081787	69.15827942	290.1088562	691.5612793	209.6725769	313.5815125	691.3308716	271.3496399	263.2226868	684.6148071	268.2153931	301.3440247	687.204895	314.3821411	275.1672974	994.1207886	68.37443542	234.8341064	935.414978	446.5736084	220.0399628	1041.29187	461.3168335	284.6532898	1068.56604	72.25868988	256.7084351	1082.748901	319.2737732	307.1653442	1077.239746	314.11203	276.3006592	1081.353149	256.180481	240.8726654	1060.174927	783.8867798	241.8523102	1066.361816	635.5076904	190.6807098	1066.640747	636.9823608	218.2825775	1070.245239	697.1993408	237.6685638	698.8751831	778.8898315	235.6380463	694.8071899	646.5073242	185.10466	693.2856445	637.3986206	199.4741516	689.4337769	701.1484985	130.7533112	775.3883667	1593.010864	241.444046	786.6182861	1575.788574	252.7568207	910.1518555	1571.27356	262.6589355	858.1257935	1391.231445	284.6726685	877.5529175	1007.473694	140.1282043	873.0375977	1328.457275	244.1716614	725.2249756	1380.851929	236.3105164	987.071228	1396.797852	165.3979492	222.8673401	1358.057129	206.036911	222.4747925	1353.640137	152.1208344	130.8509674	1337.449341	241.8634796	1500.910889	1389.071045	288.7463684	1499.905151	1382.848511	236.387558	1591.11499	1391.307983	293.412323	1271.447266	1329.688843	255.0585022	1272.044556	1296.19751	220.8597565	454.2393799	1300.16626	179.8742371	466.9555054	1277.840942	236.9656372	506.2449341	1353.837402	201.1461792	536.7661743	1371.512817	238.0754852	585.4377441	1362.449951	266.3388062	1205.925781	1382.17334	256.9446716	1144.240601	1383.881348	216.1714325	1212.529907	1385.307251	225.627243	775.3602295	455.4206543	227.4370422	988.3533936	453.9452209	277.7211304	739.8546143	71.05641937	279.9102783	1031.343384	70.31655884
112	0.555	132.8075104	762.2758789	918.046936	128.5275269	984.694397	918.6408691	308.2998352	912.5302734	950.2335815	307.4840698	852.6105347	953.4555664	296.6178894	882.4770508	966.5917969	1270.851807	-346.4551086	26.30689049	1226.420898	1876.952271	26.30008507	323.0804749	1019.706848	39.87284851	128.1491547	1043.341919	43.46240234	165.0644684	1113.654175	34.81759644	140.1767731	1079.973022	42.69408798	326.256012	745.1782837	45.84428787	134.380188	736.4868774	46.34799576	170.1530609	662.8595581	33.26947784	143.1716614	698.0614014	45.92742538	276.6645203	778.7127686	72.96362305	232.4124603	829.1645508	456.8926392	218.839386	721.5475464	453.9549255	278.7897644	701.0116577	69.15499115	290.1213989	691.539978	209.6910248	313.5600586	691.3237915	271.3825378	263.2434998	684.6030273	268.223114	301.3493347	687.206665	314.3785706	275.1643677	994.1138306	68.37583923	234.828537	935.4213257	446.5673828	220.0244293	1041.294434	461.3200989	284.6475525	1068.568726	72.26249695	256.7250366	1082.737793	319.2698669	307.1609497	1077.237549	314.1015015	276.3008423	1081.355103	256.1869812	240.853241	1060.168579	783.8842773	241.845871	1066.328369	635.4934082	190.6721344	1066.651123	636.9967651	218.3589935	1070.17041	697.0968018	237.6616364	698.8647461	778.8847656	235.7470551	694.6682739	646.7127686	185.1188507	693.2712402	637.4003906	199.4214478	689.6512451	701.1489868	130.7656708	775.4048462	1593.0177	241.4525909	786.6395264	1575.768799	252.7588196	910.1674194	1571.257324	262.664978	858.1431274	1391.231323	284.6717834	877.5493774	1007.470337	140.1340637	873.043396	1328.447876	244.1775208	725.2387085	1380.848877	236.3156738	987.0828247	1396.789795	165.4391937	222.8777771	1358.088745	206.0904236	222.4777069	1353.671753	152.1450806	130.7890472	1337.600586	241.8851471	1500.920288	1389.07373	288.7615967	1499.907837	1382.845947	236.4051361	1591.113892	1391.293579	293.4157104	1271.465576	1329.676147	255.0761566	1272.057861	1296.19458	220.8902588	454.2548828	1300.190674	179.9127655	466.9611816	1277.859131	236.9898987	506.2605591	1353.846802	201.173111	536.7749634	1371.526978	238.1081848	585.453125	1362.470703	266.3599854	1205.930664	1382.152466	256.9626465	1144.247437	1383.866943	216.1602478	1212.533203	1385.319092	225.6259155	775.3560791	455.4237671	227.4264832	988.3579102	453.9437256	277.7271423	739.8621826	71.05931091	279.9059448	1031.341309	70.31916809
113	0.56	132.8065033	762.2597046	918.0510864	128.5207367	984.6890259	918.6372681	308.2989197	912.5216675	950.2338867	307.4738159	852.6080933	953.4459839	296.6141663	882.4593506	966.5855103	1270.848389	-346.4862976	26.30796242	1226.414917	1876.964966	26.30774117	323.066864	1019.703613	39.86449814	128.1483002	1043.357178	43.45906448	165.0613251	1113.665161	34.83651352	140.1768646	1079.970093	42.69478607	326.2637024	745.1700439	45.85149002	134.3870239	736.4907227	46.35163116	170.0370483	662.8286743	33.37434387	143.1634216	698.0663452	45.93218613	276.6667786	778.7078857	72.96405792	232.4153137	829.1554565	456.8970337	218.8358612	721.5322266	453.956604	278.7825928	701.0155029	69.16196442	290.1107178	691.5435791	209.6878815	313.5696716	691.3005981	271.3792725	263.2303162	684.5930176	268.2169189	301.3451538	687.2019653	314.3664551	275.1708374	994.1207275	68.38048553	234.8378143	935.4088745	446.5778503	220.0224152	1041.284546	461.313446	284.6445923	1068.569092	72.26791382	256.7258911	1082.730469	319.2672424	307.1627502	1077.236938	314.1009521	276.275116	1081.36145	256.2015076	240.8361969	1060.163818	783.8793945	241.990036	1065.99292	635.3249512	190.6731415	1066.652222	636.9952393	218.3508606	1070.178223	697.0720825	237.6544952	698.8525391	778.8924561	235.7460022	694.6498413	646.7022095	185.1076813	693.2561035	637.4067383	199.4155121	689.6452026	701.1611328	130.8041382	775.4177856	1593.014038	241.4592896	786.6535645	1575.753906	252.7625122	910.1990967	1571.253296	262.6795959	858.1488037	1391.228027	284.6604004	877.5487061	1007.464478	140.1301422	873.0545044	1328.449097	244.196228	725.2558594	1380.861206	236.3196869	987.0933838	1396.780273	165.4753571	222.8867035	1358.131836	206.1376801	222.4866486	1353.715332	152.2015686	130.8772278	1337.552856	241.9020996	1500.932861	1389.073608	288.7736816	1499.919067	1382.845581	236.4255524	1591.125366	1391.300781	293.4274902	1271.464233	1329.66687	255.0882568	1272.065308	1296.187988	220.9325256	454.2773743	1300.207642	179.9488373	466.9607239	1277.881104	236.9956512	506.2787476	1353.869141	201.2064209	536.7946167	1371.535645	238.132843	585.4683228	1362.475952	266.3768005	1205.935425	1382.144653	256.9801331	1144.258301	1383.861328	216.1619873	1212.586548	1385.411255	225.6255798	775.3438721	455.4268188	227.4301147	988.3466797	453.9456482	277.7246704	739.8616943	71.06301117	279.9077148	1031.344971	70.32420349
114	0.565	132.8031464	762.2560425	918.0484009	128.5233765	984.6773682	918.6362915	308.2888794	912.5151978	950.2280273	307.4763794	852.598877	953.4466553	296.613739	882.4559937	966.5791626	1270.856812	-346.4759521	26.31721306	1226.416138	1876.92981	26.30152512	323.0753479	1019.696289	39.86952209	128.1578522	1043.334351	43.46829987	165.0627747	1113.669434	34.83504486	140.1755371	1079.971436	42.69570541	326.2645569	745.1820679	45.86087036	134.3852539	736.4889526	46.34775162	170.0404358	662.8314209	33.3781395	143.171936	698.0615845	45.93361282	276.6690979	778.7037964	72.96808624	232.4102936	829.1518555	456.8952637	218.8425293	721.5177612	453.9524841	278.7886963	701.0085449	69.16226196	290.107605	691.5432739	209.6951141	313.5734253	691.3269043	271.3710022	263.2351074	684.5991211	268.2221375	301.3483276	687.1912231	314.3769836	275.1678467	994.1075439	68.38273621	234.8308105	935.4072876	446.5755615	220.027298	1041.266235	461.3067627	284.6477051	1068.566895	72.26841736	256.7116089	1082.739014	319.2825317	307.1665955	1077.228516	314.1014404	276.2861938	1081.343506	256.1829224	240.8241577	1060.155762	783.8820801	241.9750366	1065.967163	635.3180542	190.6686859	1066.636841	636.9998169	218.3342285	1070.177124	697.0776978	237.6613312	698.8508301	778.9014282	235.5852203	695.0288696	646.4900513	185.1039429	693.2443237	637.4203491	199.4056854	689.6347656	701.1647949	130.8005066	775.4451294	1593.030396	241.4626312	786.6858521	1575.761108	252.7808075	910.2185059	1571.251587	262.6800232	858.1748047	1391.234863	284.6657715	877.5437012	1007.459045	140.1353912	873.0562744	1328.438965	244.2194061	725.265686	1380.88269	236.3306732	987.1045532	1396.779175	165.5236969	222.8929596	1358.1604	206.1723938	222.4978638	1353.760254	152.2623901	130.8669891	1337.590698	241.9181061	1500.94165	1389.072632	288.7720337	1499.931763	1382.839478	236.4389954	1591.125122	1391.291992	293.4221802	1271.47937	1329.661743	255.0833893	1272.077881	1296.182861	220.9613647	454.2741089	1300.230225	179.9834747	466.9677124	1277.900757	237.019104	506.2987976	1353.888794	201.2037964	536.8099365	1371.546875	238.2100372	585.5119629	1362.298218	266.4072876	1205.940796	1382.128418	256.9996643	1144.272705	1383.84729	216.223114	1212.548584	1385.326904	225.6264038	775.3348389	455.4238892	227.4290466	988.336792	453.9411621	277.7288818	739.8562012	71.06517029	279.9077759	1031.337158	70.32557678
115	0.57	132.7859497	762.2380981	918.0562134	128.511673	984.6723022	918.6401978	308.2813416	912.510437	950.2171631	307.4615479	852.5990601	953.4342651	296.6135864	882.456543	966.5784912	1270.834595	-346.4971313	26.29508972	1226.420898	1876.946167	26.3042469	323.0693054	1019.698669	39.87542343	128.157608	1043.337158	43.46582031	165.0619965	1113.665405	34.83211136	140.176178	1079.970947	42.69219208	326.2625732	745.1791382	45.86363602	134.3830414	736.4884644	46.34859467	170.0413666	662.8354492	33.37876892	143.1686249	698.0684204	45.93731689	276.663269	778.7105103	72.97171783	232.3997345	829.152832	456.8963013	218.8327179	721.513916	453.9587097	278.7949219	701.0130615	69.16916656	290.1046448	691.5355225	209.6854858	313.5665894	691.2871704	271.4136658	263.1580811	684.5081787	268.1936035	301.3655701	687.175293	314.3907471	275.1725769	994.1092529	68.38655853	234.8365784	935.3989868	446.5798035	220.0145874	1041.266846	461.305542	284.651123	1068.565186	72.2652359	256.7150269	1082.725708	319.2679443	307.1602173	1077.22876	314.1077271	276.2737122	1081.342041	256.1836243	240.808609	1060.155273	783.8811646	241.9572296	1065.968872	635.331543	190.662262	1066.628052	636.9923096	218.2934418	1070.167358	697.0673828	237.6522827	698.8354492	778.9026489	235.623642	694.800354	646.4937744	185.100235	693.2370605	637.4282837	199.4056396	689.6243286	701.1646729	130.7972565	775.4747925	1593.034912	241.4850769	786.7067871	1575.768066	252.7757111	910.2334595	1571.235352	262.6845093	858.1663208	1391.217896	284.6578979	877.5490112	1007.457092	140.1463776	873.0562134	1328.429688	244.2205963	725.2816162	1380.873169	236.3311615	987.1146851	1396.772949	165.5789795	222.8969116	1358.200928	206.2047424	222.5143585	1353.783081	152.2981262	130.8755341	1337.657715	241.9238434	1500.952881	1389.069824	288.778717	1499.947144	1382.838135	236.4363708	1591.133789	1391.291748	293.4303894	1271.495117	1329.649048	255.0857849	1272.088501	1296.174072	220.9982605	454.2852173	1300.252441	180.0167542	466.9708862	1277.922119	237.0498047	506.305603	1353.906738	201.213623	536.8192749	1371.567627	238.1598511	585.5249634	1362.446045	266.4321899	1205.942871	1382.117432	257.0150757	1144.269531	1383.835449	216.2067566	1212.591797	1385.428345	225.6162262	775.333374	455.4274902	227.4255829	988.3328857	453.942688	277.7290955	739.8618164	71.0704422	279.9118652	1031.337158	70.32589722
